<svg id="canvas" height="auto" xmlns="http://www.w3.org/2000/svg" version="1.1" xmlns:xlink="http://www.w3.org/1999/xlink" viewBox="0 0 1920 1080" width="auto" style="width: auto; height: auto;"><rect width="1920" height="1080" fill="#1a1919ff"/><path d="M152.96869910387068 360.2061155417164C101.62855661948333 358.86010128678276 10.618399819668923 278.21780607119797 -42.590607557082365 261.55229292315516C-95.79961493383365 244.88677977511236 -131.5968610909086 267.26584236140707 -166.285345156637 260.2130366534593C-200.9738292223654 253.16023094551156 -221.8804876608889 242.68505642531943 -250.7215119514528 219.23545867546875C-279.56253624201673 195.78586092561807 -323.2055274163372 158.00166028562626 -339.3314909000205 119.51545015435511C-355.45745438370386 81.02924002308401 -347.5023131307308 32.50509389992061 -347.4772928535527 -11.681802112157925C-347.4522725763746 -55.86869812423646 -356.97417135445994 -108.12916809597772 -339.18136923695187 -145.60592591811616C-321.3885671194438 -183.0826837402546 -273.91523630184196 -205.17694308354066 -240.7204801485042 -236.54234904498853C-207.52572399516646 -267.9077550064364 -179.32396346032328 -314.9179026015158 -140.0128323169254 -333.7983616868034C-100.70170117352751 -352.678820772091 -50.402888039396544 -349.76392417037175 -4.853693288116858 -349.8251035567141C40.69550146316283 -349.8862829430565 94.77436230315703 -352.60935755556307 133.2823361907528 -334.16543800485755C171.79031007834863 -315.72151845415203 194.8276892879967 -271.3379179589381 226.1941500374578 -239.16158625248087C257.5606107869189 -206.9852545460237 314.171304203335 -176.15710439257697 321.48110068751953 -141.10744776611452C328.79089717170405 -106.05779113965207 277.8988283789597 -68.79576614305165 270.0529289425648 -28.8636464937062C262.2070295061699 11.068473155639253 275.1728176680374 48.736599305547884 274.40570406915015 98.48527012995834C273.6385904702629 148.2339409543688 285.68974817678827 226.00823755079693 265.45024734924164 269.6283784527566C245.210746521695 313.2485193547162 204.30884158825802 361.55212979665 152.96869910387068 360.2061155417164C101.62855661948333 358.86010128678276 10.618399819668923 278.21780607119797 -42.590607557082365 261.55229292315516 " fill="url(#SvgjsLinearGradient1047)"/><defs><linearGradient gradientTransform="matrix(1,0,0,1,0,0)" id="SvgjsLinearGradient1047"><stop stop-color="#e71989ff" offset="0"/><stop stop-color="#e77719ff" offset="1"/></linearGradient><linearGradient gradientTransform="matrix(1,0,0,1,0,0)" id="SvgjsLinearGradient1048"><stop stop-color="#e71989ff" offset="0"/><stop stop-color="#e77719ff" offset="1"/></linearGradient><linearGradient gradientTransform="matrix(1,0,0,1,0,0)" id="SvgjsLinearGradient1049"><stop stop-color="#e71989ff" offset="0"/><stop stop-color="#e77719ff" offset="1"/></linearGradient><linearGradient gradientTransform="matrix(1,0,0,1,0,0)" id="SvgjsLinearGradient1050"><stop stop-color="#e71989ff" offset="0"/><stop stop-color="#e77719ff" offset="1"/></linearGradient></defs><path d="M2052.3901011736907 1513.3802349736477C2011.6219885733412 1528.3723274131758 1952.481531784816 1507.7878593114906 1905.4395608741634 1505.0863776612814C1858.3975899635107 1502.3848960110722 1809.4931520221749 1510.5400370567809 1770.1382757097742 1497.171345072393C1730.7833993973736 1483.8026530880052 1701.0855466431854 1454.6656908452287 1669.3103029997592 1424.874225754954C1637.535059356333 1395.0827606646794 1595.5741281694418 1356.8582004878126 1579.4868138492175 1318.4225545307454C1563.3994995289931 1279.9869085736786 1572.6008697297964 1239.0181097588538 1572.7864170784128 1194.2603500125522C1572.9719644270294 1149.5025902662505 1566.6851587923873 1095.3591146354543 1580.6000979409164 1049.8759960529355C1594.5150370894455 1004.3928774704168 1628.0711289670248 956.1118513616425 1656.276051969588 921.3616385174396C1684.480974972151 886.6114256732366 1704.7879841789475 854.8442855635465 1749.8296359562944 841.3747189877176C1794.8712877336416 827.9051524118888 1873.1814578931162 839.8593494718818 1926.52596263367 840.5442390624664C1979.8704673742236 841.229128653051 2043.4473835546341 830.1310682489376 2069.8966643996164 845.4840565312255C2096.345945244599 860.8370448135134 2067.501851935585 904.02672586793 2085.221647703565 932.6621687561941C2102.9414434715454 961.2976116444581 2153.3169360360607 979.3761560756562 2176.215439007497 1017.2967138608095C2199.1139419789333 1055.2172716459627 2216.6163133279647 1114.4799686463134 2222.612665532183 1160.1855154671134C2228.6090177364013 1205.8910622879134 2224.287623742127 1249.0386101927759 2212.1935522328067 1291.529994785609C2200.0994807234865 1334.0213793784421 2176.6821449861136 1378.1587829927726 2150.048236476261 1415.1338230241122C2123.4143279664086 1452.1088630554518 2093.1582137740406 1498.3881425341197 2052.3901011736907 1513.3802349736477C2011.6219885733412 1528.3723274131758 1952.481531784816 1507.7878593114906 1905.4395608741634 1505.0863776612814 " fill="url(#SvgjsLinearGradient1048)" transform="matrix(-1,1.2246467991473532e-16,-1.2246467991473532e-16,-1,3795.29248046875,2353.7991943359375)"/><path d="M335.9186991501531 1700.0217459512673C289.9743865990913 1710.3830395306718 221.72584001283076 1675.7657273230257 171.54976958575384 1669.346356121358C121.37369915867691 1662.9269849196903 74.2974101851363 1683.326460612597 34.86227658769147 1661.505518741261C-4.572857009753335 1639.6845768699252 -32.65506491131492 1574.0607219290416 -65.06103199891498 1538.4207048933426C-97.46699908651506 1502.7806878576437 -141.32190470955265 1478.3923575120994 -159.57352593790898 1447.665416527067C-177.8251471662653 1416.9384755420344 -175.04521504153107 1393.879385847221 -174.570759369053 1354.0590589831477C-174.09630369657495 1314.2387321190743 -173.46972631020634 1253.4449990353592 -156.7267919030407 1208.743455342626C-139.98385749587504 1164.0419116498929 -104.14040795041271 1120.6218639969773 -74.1131529260592 1085.8497968267484C-44.08589790170569 1051.0777296565198 -15.558085342858732 1014.7946091196486 23.436738243080384 1000.1110523212534C62.4315618290195 985.4274955228582 115.08388016308749 997.6620033173145 159.85578858957547 997.7484560363771C204.62769701606345 997.8349087554395 249.51085071032088 984.1528473112048 292.0681888020083 1000.6297686356286C334.6255268936957 1017.1066899600523 378.8850225333921 1063.7940859702508 415.19981713970003 1096.6099839829199C451.514611746008 1129.425881995589 491.3945601306857 1157.0922307500318 509.95695643985596 1197.5251567116434C528.5193527490262 1237.958082673255 525.5092749864725 1292.3217803648422 526.5741949947218 1339.2075397525891C527.639115002971 1386.093299140336 529.5729015064513 1434.1778705560673 516.3464764893517 1478.8397130381245C503.12005147225216 1523.5015555201817 477.2869411153241 1570.314922492741 447.2156448921244 1607.1785946449313C417.14434866892464 1644.042266797122 381.8630117012149 1689.660452371863 335.9186991501531 1700.0217459512673C289.9743865990913 1710.3830395306718 221.72584001283076 1675.7657273230257 171.54976958575384 1669.346356121358 " fill="url(#SvgjsLinearGradient1049)"/><path d="M1880.3473875517018 149.47127397803615C1837.768138037402 160.48844248709997 1777.3530482589535 129.7289949060645 1730.1145308231307 125.77864076995343C1682.876013387308 121.82828663384237 1635.5381067399212 138.91163976804762 1596.9162829367647 125.76914916136957C1558.2944591336081 112.62665855469152 1529.7089858199556 77.05221558102221 1498.3835880041916 46.923697129885C1467.0581901884277 16.79517867874779 1426.107742434784 -14.195703602731214 1408.9638960421812 -55.00196154545392C1391.8200496495783 -95.80821948817669 1395.6170595047017 -152.03032543692183 1395.5205096485743 -197.91385052645154C1395.423959792447 -243.79737561598125 1391.2273069338867 -292.0470623844406 1408.3845969054173 -330.3031120826321C1425.5418868769482 -368.5591617808235 1466.6412876363047 -396.32196859164156 1498.464249477759 -427.4501487156002C1530.2872113192134 -458.5783288395588 1558.4619155935095 -501.57012543879745 1599.3223679541436 -517.0721928263838C1640.1828203147775 -532.5742602139702 1696.5146590175054 -520.5845333123863 1743.6269636415632 -520.4625530411186C1790.7392682656207 -520.340572769851 1845.015891413318 -531.5995861196606 1881.9961956984896 -516.340311198778C1918.9764999836611 -501.0810362778955 1936.8608690490005 -460.2482645288063 1965.5087893525922 -428.90690351582356C1994.156709656184 -397.5655425028408 2034.3267871328576 -368.7104604438608 2053.8837175200406 -328.2921451208814C2073.4406479072236 -287.8738297979021 2080.2020730689214 -232.84562800426806 2082.8503716756904 -186.39701157794735C2085.4986702824594 -139.94839515162664 2085.9835664551147 -90.61255344521027 2069.7735091606546 -49.6004465629573C2053.5634518661946 -8.588339680704394 2017.161048177089 26.497009625404758 1985.5900279089303 59.67562971557038C1954.0190076407716 92.854249805736 1922.9266370660016 138.45410546897233 1880.3473875517018 149.47127397803615C1837.768138037402 160.48844248709997 1777.3530482589535 129.7289949060645 1730.1145308231307 125.77864076995343 " fill="url(#SvgjsLinearGradient1050)"/></svg>