<svg id="canvas" height="auto" xmlns="http://www.w3.org/2000/svg" version="1.1" xmlns:xlink="http://www.w3.org/1999/xlink" viewBox="0 0 1920 1080" width="auto" style="width: auto; height: auto;"><rect width="1920" height="1080" fill="#f6ececff"/><path d="M127.78587370294463 313.0525462977729C91.28143742836687 336.6476902082577 54.75646621480314 360.28579526808244 11.6628406433652 366.3884469444745C-31.43078492807274 372.4910986208665 -87.54186914072397 375.0011181794089 -130.775879725683 349.66845635612515C-174.00989031064205 324.3357945328414 -213.84583499841023 253.81925843225122 -247.74122286638897 214.39247600477245C-281.6366107343677 174.96569357729368 -317.27024674356295 156.36632467482718 -334.14820693355546 113.1077617912523C-351.02616712354796 69.84919890767748 -348.68485556474616 1.7090509407944978 -349.008984006344 -45.158901296676504C-349.33311244794186 -92.0268535341475 -354.80867506900586 -135.1953228662817 -336.0929775831425 -168.09995163357377C-317.37728009727914 -201.00458040086582 -269.82771719213565 -214.11912526929734 -236.71479909116383 -242.58667390042888C-203.60188099019197 -271.0542225315604 -171.6352070967979 -321.5664367728177 -137.41546897731138 -338.905243420363C-103.19573085782486 -356.24405006790823 -70.05966575840534 -346.20968569571414 -31.396370374244782 -346.6195137857004C7.266925009915781 -347.02934187568667 50.753710835048025 -356.6931802409799 94.56430332765194 -341.3642119602806C138.37489582025586 -326.0352436795813 194.48548830384652 -286.6748630040721 231.46718458137866 -254.64570410150466C268.4488808589108 -222.61654519893722 307.23460403540867 -186.1761342923389 316.4544809928444 -149.18925854487594C325.6743579502802 -112.20238279741298 292.6219745425717 -73.41850260231143 286.78644632599355 -32.72444961672687C280.9509181094154 7.96960336885769 290.790809699236 52.0513871855826 281.4413116933756 94.97505936863138C272.09181368751524 137.89873155168016 256.29869795590355 188.47133566004243 230.68945829083168 224.81758348156598C205.0802186257598 261.1638313030895 164.29030997752238 289.4574023872881 127.78587370294463 313.0525462977729C91.28143742836687 336.6476902082577 54.75646621480314 360.28579526808244 11.6628406433652 366.3884469444745 " fill="url(#SvgjsLinearGradient1043)"/><defs><linearGradient gradientTransform="matrix(1,0,0,1,0,0)" id="SvgjsLinearGradient1043"><stop stop-color="#e71989ff" offset="0"/><stop stop-color="#e77719ff" offset="1"/></linearGradient><linearGradient gradientTransform="matrix(1,0,0,1,0,0)" id="SvgjsLinearGradient1044"><stop stop-color="#e71989ff" offset="0"/><stop stop-color="#e77719ff" offset="1"/></linearGradient><linearGradient gradientTransform="matrix(1,0,0,1,0,0)" id="SvgjsLinearGradient1045"><stop stop-color="#e71989ff" offset="0"/><stop stop-color="#e77719ff" offset="1"/></linearGradient><linearGradient gradientTransform="matrix(1,0,0,1,0,0)" id="SvgjsLinearGradient1046"><stop stop-color="#e71989ff" offset="0"/><stop stop-color="#e77719ff" offset="1"/></linearGradient></defs><path d="M2015.780948396116 1455.7229316193907C1985.6012609269778 1482.902608943703 1960.731812106309 1515.972194936546 1921.8314905003417 1526.5244195640828C1882.9311688943744 1537.0766441916196 1822.9388990990008 1533.8861677883385 1782.379018760312 1519.0362793846118C1741.819138421623 1504.186390980885 1711.2672691936657 1468.9465148688046 1678.4722084682085 1437.4250891417228C1645.677147742751 1405.9036634146412 1603.4337222996785 1379.4531095957223 1585.6086544075679 1329.9077250221212C1567.783586515457 1280.3623404485204 1572.1315798171179 1192.3281587168449 1571.5218011155441 1140.1527817001177C1570.9120224139701 1087.9774046833907 1564.8947344097576 1051.149255180314 1581.9499821981246 1016.8554629217588C1599.0052299864917 982.5616706632036 1643.9677727482576 963.3498713683637 1673.853287845747 934.3900281487865C1703.7388029432364 905.4301849292095 1718.7913789729073 858.8510928792803 1761.2630727830604 843.0964036042966C1803.7347665932134 827.3417143293129 1877.1009538210292 839.3410003268887 1928.6834507066658 839.8618924988843C1980.2659475923026 840.3827846708799 2027.5275965610178 828.9529689197431 2070.758054096881 846.2217566362701C2113.988511632744 863.4905443527973 2152.392534256075 909.2857758982791 2188.066195921844 943.4746187980472C2223.739857587613 977.6634616978154 2266.285987649733 1009.4565363604006 2284.8000240914953 1051.354814034879C2303.3140605332565 1093.253091709357 2299.5270116394563 1146.9069556112995 2299.1504145724134 1194.8642848449165C2298.7738175053705 1242.8216140785335 2315.2472415654443 1311.0017776410316 2282.540441689237 1339.0987894365805C2249.83364181303 1367.1958012321293 2147.3695308640245 1344.0089985877416 2102.909615315171 1363.44635561821C2058.4496997663173 1382.8837126486783 2045.960635865254 1428.5432542950784 2015.780948396116 1455.7229316193907C1985.6012609269778 1482.902608943703 1960.731812106309 1515.972194936546 1921.8314905003417 1526.5244195640828 " fill="url(#SvgjsLinearGradient1044)" transform="matrix(-1,1.2246467991473532e-16,-1.2246467991473532e-16,-1,3872.969482421875,2367.724609375)"/><path d="M260.37876860473796 1595.7678076881243C225.18151452430442 1613.5029490369811 182.85185265896922 1618.1117846488974 142.13756321005894 1619.9213889108C101.42327376114866 1621.7309931727027 53.77847917289694 1624.6485057715217 16.093031911276398 1606.62543325954C-21.59241535034414 1588.6023607475581 -54.160479480599975 1543.4111853450577 -83.97512035966432 1511.7829538389083C-113.78976123872864 1480.1547223327589 -147.69193651882654 1450.1442910342193 -162.7948133631096 1416.8560442226435C-177.89769020739266 1383.5677974110672 -174.82143843781373 1351.148349029714 -174.5923814253627 1312.0534729694518C-174.36332441291168 1272.9585969091895 -178.48892563140902 1219.6277337296997 -161.4204712884034 1182.2867878610696C-144.3520169453978 1144.9458419924395 -102.11473748461493 1118.67464629545 -72.181655367329 1088.0077977576711C-42.24857325004305 1057.3409492198923 -16.085390438252517 1012.4635795122759 18.17802141531223 998.2856966343967C52.44143326887698 984.1078137565174 93.7452904596434 1003.094216284635 133.39881575405946 1002.9405004903958C173.0523410484755 1002.7867846961566 213.44226353474505 983.8431147811209 256.0991731818086 997.3634018689615C298.7560828288722 1010.8836889568022 352.9780502743977 1052.7537211842132 389.3402736364409 1084.0622230174395C425.7024969984841 1115.3707248506655 454.13636865236197 1143.5306004366598 474.2725133540681 1185.214412868319C494.40865805577425 1226.8982252999779 504.5877918975532 1286.3019105642147 510.15714184667786 1334.1650976073936C515.7264917958025 1382.0282846505725 533.8279554078188 1442.5026279256808 507.6886130488158 1472.3935351273917C481.54927068981283 1502.2844423291028 394.5393951000066 1492.9481620575375 353.3210876926603 1513.5105408176596C312.102780285314 1534.0729195777817 295.5760226851715 1578.0326663392675 260.37876860473796 1595.7678076881243C225.18151452430442 1613.5029490369811 182.85185265896922 1618.1117846488974 142.13756321005894 1619.9213889108 " fill="url(#SvgjsLinearGradient1045)"/><path d="M1881.0725322142937 169.00757118511467C1832.2796931599714 169.74829598504607 1749.005949030313 98.74381514967877 1697.8777765727625 84.91772743204842C1646.749604115212 71.09163971441808 1607.533011502941 86.92917125320082 1574.3034974689904 86.05104487933227C1541.0739834350395 85.17291850546371 1527.04031502847 98.11112171118418 1498.5006923690585 79.64896918883721C1469.9610697096468 61.186816666490245 1419.1934106575338 20.626394073985807 1403.0657615125203 -24.721870254749717C1386.938112367507 -70.0701345834853 1402.0701681847022 -142.62617880504416 1401.734797498978 -192.44061678357616C1401.3994268132537 -242.25505476210816 1387.2076971218216 -284.7900020716818 1401.0535373981754 -323.60849812594154C1414.8993776745292 -362.4269941802013 1454.2458647130338 -394.3915493843398 1484.8098391571007 -425.3515931091347C1515.3738136011675 -456.31163683392947 1544.57001768286 -492.77168098764946 1584.4373840625767 -509.36876047471065C1624.3047504422934 -525.9658399617718 1678.488563019951 -525.0573881321192 1724.0140374354012 -524.9340700315018C1769.5395118508513 -524.8107519308845 1818.3072008746333 -527.4715667205949 1857.5902305552777 -508.62885187100693C1896.8732602359219 -489.786137021419 1926.6299356178804 -443.87476518172707 1959.7122155192671 -411.87778093397424C1992.794495420654 -379.88079668622146 2050.629289359287 -349.9911685004072 2056.0839099635987 -316.64694638449C2061.5385305679097 -283.30272426857283 2002.2674202184312 -249.9106316611423 1992.4399391451336 -211.81244823847112C1982.612458071836 -173.71426481579994 1997.419878231552 -136.77215032695153 1997.1190235238123 -88.05784584846293C1996.818168816073 -39.34354136997433 2009.975892783616 37.629142460197386 1990.6348108986963 80.47337863246037C1971.2937290137766 123.31761480472335 1929.865371268616 168.26684638518327 1881.0725322142937 169.00757118511467C1832.2796931599714 169.74829598504607 1749.005949030313 98.74381514967877 1697.8777765727625 84.91772743204842 " fill="url(#SvgjsLinearGradient1046)"/></svg>